<svg xmlns="http://www.w3.org/2000/svg" x="0px" y="0px" viewBox="6.418099880218506 8.191400527954102 35.16380310058594 31.61720085144043" enable-background="new 0 0 48 48">
<g>
	<g>
		<g>
			
				<line fill="none" stroke="#000000" stroke-linecap="round" stroke-linejoin="round" stroke-miterlimit="10" x1="14.3193" y1="34.1244" x2="6.9181" y2="38.6146" stroke-width="1"/>
			<polyline fill="none" stroke="#000000" stroke-linecap="round" stroke-linejoin="round" stroke-miterlimit="10" points="     9.6034,39.3086 6.9306,38.6364 7.6029,35.9635    " stroke-width="1"/>
		</g>
		<g>
			
				<line fill="none" stroke="#000000" stroke-width="1" stroke-linecap="round" stroke-linejoin="round" stroke-miterlimit="10" x1="14.3193" y1="34.1244" x2="6.9181" y2="38.6146"/>
			
				<polyline fill="none" stroke="#000000" stroke-width="1" stroke-linecap="round" stroke-linejoin="round" stroke-miterlimit="10" points="     9.6034,39.3086 6.9306,38.6364 7.6029,35.9635    "/>
		</g>
	</g>
	<g>
		<g>
			
				<line fill="none" stroke="#000000" stroke-linecap="round" stroke-linejoin="round" stroke-miterlimit="10" x1="33.6807" y1="34.1244" x2="41.0819" y2="38.6146" stroke-width="1"/>
			<polyline fill="none" stroke="#000000" stroke-linecap="round" stroke-linejoin="round" stroke-miterlimit="10" points="     38.3966,39.3086 41.0694,38.6364 40.3971,35.9635    " stroke-width="1"/>
		</g>
		<g>
			
				<line fill="none" stroke="#000000" stroke-width="1" stroke-linecap="round" stroke-linejoin="round" stroke-miterlimit="10" x1="33.6807" y1="34.1244" x2="41.0819" y2="38.6146"/>
			
				<polyline fill="none" stroke="#000000" stroke-width="1" stroke-linecap="round" stroke-linejoin="round" stroke-miterlimit="10" points="     38.3966,39.3086 41.0694,38.6364 40.3971,35.9635    "/>
		</g>
	</g>
	<g>
		<g>
			
				<line fill="none" stroke="#000000" stroke-linecap="round" stroke-linejoin="round" stroke-miterlimit="10" x1="23.8501" y1="17.3484" x2="23.9078" y2="8.6918" stroke-width="1"/>
			<polyline fill="none" stroke="#000000" stroke-linecap="round" stroke-linejoin="round" stroke-miterlimit="10" points="     25.881,10.6409 23.9329,8.6914 21.9834,10.6396    " stroke-width="1"/>
		</g>
		<g>
			
				<line fill="none" stroke="#000000" stroke-width="1" stroke-linecap="round" stroke-linejoin="round" stroke-miterlimit="10" x1="23.8501" y1="17.3484" x2="23.9078" y2="8.6918"/>
			
				<polyline fill="none" stroke="#000000" stroke-width="1" stroke-linecap="round" stroke-linejoin="round" stroke-miterlimit="10" points="     25.881,10.6409 23.9329,8.6914 21.9834,10.6396    "/>
		</g>
	</g>
</g>
<g>
	
		<path fill="#FFFFFF" stroke="#536DFE" stroke-width="1" stroke-linecap="round" stroke-linejoin="round" stroke-miterlimit="10" d="   M22.7625,38.3933L15.9,35.1799c-1.0344-0.4844-1.6952-1.5234-1.6952-2.6656v-8.435c0-1.1121,0.6268-2.1292,1.6201-2.6291   l6.8618-3.4535c0.8384-0.422,1.8278-0.4188,2.6634,0.0086l6.7273,3.4404c0.984,0.5032,1.6032,1.5153,1.6032,2.6206v8.4609   c0,1.1356-0.6533,2.1699-1.6787,2.6578l-6.7267,3.2006C24.4809,38.7635,23.5591,38.7663,22.7625,38.3933z"/>
	
		<polyline fill="none" stroke="#536DFE" stroke-width="1" stroke-linecap="round" stroke-linejoin="round" stroke-miterlimit="10" points="   15.0029,22.0641 23.9391,26.2063 32.8826,22.0641  "/>
	
		<line fill="none" stroke="#536DFE" stroke-width="1" stroke-linecap="round" stroke-linejoin="round" stroke-miterlimit="10" x1="23.9447" y1="38.671" x2="23.9409" y2="26.2063"/>
</g>
</svg>