<svg xmlns="http://www.w3.org/2000/svg" x="0px" y="0px" viewBox="16.70347023010254 13.32981014251709 30.59305763244629 37.340370178222656" enable-background="new 0 0 64 64">
<g>
	
		<path fill="#FFFFFF" stroke="#000000" stroke-width="1" stroke-linecap="round" stroke-linejoin="round" stroke-miterlimit="10" d="   M46.01111,23.58956c0.50696,0.59472,0.78542,1.35063,0.78542,2.13211v19.32914c0,2.82735-2.23975,5.11937-5.00264,5.11937H22.20611   c-2.76288,0-5.00264-2.29202-5.00264-5.11937V18.94919c0-2.82735,2.23976-5.11938,5.00264-5.11938h13.96845   c0.96258,0,1.87677,0.42198,2.50121,1.15452L46.01111,23.58956z"/>
	
		<path fill="#FFFFFF" stroke="#000000" stroke-width="1" stroke-linecap="round" stroke-linejoin="round" stroke-miterlimit="10" d="   M45.43064,22.9257l-6.57153-7.65411c-1.48233-1.72653-4.01455-0.42836-4.01455,1.92563v7.48814   c0,1.4297,1.07368,2.5887,2.39814,2.5887h6.42904C45.7646,27.27407,46.85326,24.58269,45.43064,22.9257z"/>
</g>
<g>
	<g>
	</g>
	<path fill="none" stroke="#536DFE" stroke-width="1" stroke-linecap="round" stroke-linejoin="round" stroke-miterlimit="10" d="   M23.24681,29.12719h8.75589 M23.24681,35.40853h16.80902 M23.24681,42.20567h16.80902"/>
</g>
</svg>